<mxfile host="app.diagrams.net" modified="2024-04-16T06:51:27.152Z" agent="Mozilla/5.0 (Windows NT 10.0; Win64; x64) AppleWebKit/537.36 (KHTML, like Gecko) Chrome/123.0.0.0 Safari/537.36" etag="unJ2N27BBornNWbJ6udH" version="24.2.5" type="github">
  <diagram name="第 1 页" id="FXoVVeD6T-AWPbm8SDYu">
    <mxGraphModel dx="2261" dy="745" grid="1" gridSize="10" guides="1" tooltips="1" connect="1" arrows="1" fold="1" page="1" pageScale="1" pageWidth="827" pageHeight="1169" math="0" shadow="0">
      <root>
        <mxCell id="0" />
        <mxCell id="1" parent="0" />
        <mxCell id="PTHBT9e02o0WNVCgfB87-117" value="" style="group" vertex="1" connectable="0" parent="1">
          <mxGeometry x="-200" y="140" width="1220" height="262" as="geometry" />
        </mxCell>
        <mxCell id="PTHBT9e02o0WNVCgfB87-45" value="" style="group" vertex="1" connectable="0" parent="PTHBT9e02o0WNVCgfB87-117">
          <mxGeometry x="404" width="420" height="262" as="geometry" />
        </mxCell>
        <mxCell id="PTHBT9e02o0WNVCgfB87-9" style="edgeStyle=orthogonalEdgeStyle;rounded=0;orthogonalLoop=1;jettySize=auto;html=1;entryX=0.5;entryY=1;entryDx=0;entryDy=0;" edge="1" parent="PTHBT9e02o0WNVCgfB87-45" source="PTHBT9e02o0WNVCgfB87-2" target="PTHBT9e02o0WNVCgfB87-8">
          <mxGeometry relative="1" as="geometry" />
        </mxCell>
        <mxCell id="PTHBT9e02o0WNVCgfB87-2" value="&lt;span style=&quot;font-family: &amp;quot;Helvetica Neue&amp;quot;, Helvetica, Arial, &amp;quot;PingFang SC&amp;quot;, &amp;quot;Hiragino Sans GB&amp;quot;, &amp;quot;Microsoft YaHei&amp;quot;, &amp;quot;WenQuanYi Micro Hei&amp;quot;, sans-serif; font-size: 14px; text-align: start;&quot;&gt;σ&lt;/span&gt;" style="rounded=0;whiteSpace=wrap;html=1;fillColor=#FFB570;strokeColor=default;fontColor=default;labelBackgroundColor=none;fontSize=14;" vertex="1" parent="PTHBT9e02o0WNVCgfB87-45">
          <mxGeometry x="80" y="160" width="40" height="20" as="geometry" />
        </mxCell>
        <mxCell id="PTHBT9e02o0WNVCgfB87-11" style="edgeStyle=orthogonalEdgeStyle;rounded=0;orthogonalLoop=1;jettySize=auto;html=1;entryX=0;entryY=0.5;entryDx=0;entryDy=0;" edge="1" parent="PTHBT9e02o0WNVCgfB87-45" source="PTHBT9e02o0WNVCgfB87-3" target="PTHBT9e02o0WNVCgfB87-6">
          <mxGeometry relative="1" as="geometry">
            <Array as="points">
              <mxPoint x="160" y="130" />
            </Array>
          </mxGeometry>
        </mxCell>
        <mxCell id="PTHBT9e02o0WNVCgfB87-3" value="&lt;span style=&quot;font-family: &amp;quot;Helvetica Neue&amp;quot;, Helvetica, Arial, &amp;quot;PingFang SC&amp;quot;, &amp;quot;Hiragino Sans GB&amp;quot;, &amp;quot;Microsoft YaHei&amp;quot;, &amp;quot;WenQuanYi Micro Hei&amp;quot;, sans-serif; font-size: 14px; text-align: start;&quot;&gt;σ&lt;/span&gt;" style="rounded=0;whiteSpace=wrap;html=1;fillColor=#FFB570;strokeColor=default;fontColor=default;labelBackgroundColor=none;fontSize=14;" vertex="1" parent="PTHBT9e02o0WNVCgfB87-45">
          <mxGeometry x="140" y="160" width="40" height="20" as="geometry" />
        </mxCell>
        <mxCell id="PTHBT9e02o0WNVCgfB87-12" style="edgeStyle=orthogonalEdgeStyle;rounded=0;orthogonalLoop=1;jettySize=auto;html=1;entryX=0.5;entryY=1;entryDx=0;entryDy=0;" edge="1" parent="PTHBT9e02o0WNVCgfB87-45" source="PTHBT9e02o0WNVCgfB87-4" target="PTHBT9e02o0WNVCgfB87-6">
          <mxGeometry relative="1" as="geometry" />
        </mxCell>
        <mxCell id="PTHBT9e02o0WNVCgfB87-4" value="&lt;span style=&quot;font-family: &amp;quot;Helvetica Neue&amp;quot;, Helvetica, Arial, &amp;quot;PingFang SC&amp;quot;, &amp;quot;Hiragino Sans GB&amp;quot;, &amp;quot;Microsoft YaHei&amp;quot;, &amp;quot;WenQuanYi Micro Hei&amp;quot;, sans-serif; font-size: 14px; text-align: start;&quot;&gt;tanh&lt;/span&gt;" style="rounded=0;whiteSpace=wrap;html=1;fillColor=#FFB570;strokeColor=default;fontColor=default;labelBackgroundColor=none;fontSize=14;" vertex="1" parent="PTHBT9e02o0WNVCgfB87-45">
          <mxGeometry x="200" y="160" width="40" height="20" as="geometry" />
        </mxCell>
        <mxCell id="PTHBT9e02o0WNVCgfB87-17" style="edgeStyle=orthogonalEdgeStyle;rounded=0;orthogonalLoop=1;jettySize=auto;html=1;entryX=0;entryY=0.5;entryDx=0;entryDy=0;" edge="1" parent="PTHBT9e02o0WNVCgfB87-45" source="PTHBT9e02o0WNVCgfB87-5" target="PTHBT9e02o0WNVCgfB87-13">
          <mxGeometry relative="1" as="geometry">
            <Array as="points">
              <mxPoint x="280" y="130" />
            </Array>
          </mxGeometry>
        </mxCell>
        <mxCell id="PTHBT9e02o0WNVCgfB87-5" value="&lt;span style=&quot;font-family: &amp;quot;Helvetica Neue&amp;quot;, Helvetica, Arial, &amp;quot;PingFang SC&amp;quot;, &amp;quot;Hiragino Sans GB&amp;quot;, &amp;quot;Microsoft YaHei&amp;quot;, &amp;quot;WenQuanYi Micro Hei&amp;quot;, sans-serif; font-size: 14px; text-align: start;&quot;&gt;σ&lt;/span&gt;" style="rounded=0;whiteSpace=wrap;html=1;fillColor=#FFB570;strokeColor=default;fontColor=default;labelBackgroundColor=none;fontSize=14;" vertex="1" parent="PTHBT9e02o0WNVCgfB87-45">
          <mxGeometry x="260" y="160" width="40" height="20" as="geometry" />
        </mxCell>
        <mxCell id="PTHBT9e02o0WNVCgfB87-15" style="edgeStyle=orthogonalEdgeStyle;rounded=0;orthogonalLoop=1;jettySize=auto;html=1;entryX=0.5;entryY=1;entryDx=0;entryDy=0;" edge="1" parent="PTHBT9e02o0WNVCgfB87-45" source="PTHBT9e02o0WNVCgfB87-6" target="PTHBT9e02o0WNVCgfB87-7">
          <mxGeometry relative="1" as="geometry" />
        </mxCell>
        <mxCell id="PTHBT9e02o0WNVCgfB87-6" value="&lt;span style=&quot;color: rgb(51, 51, 51); font-family: Arial, sans-serif; text-align: start; background-color: rgb(255, 255, 255);&quot;&gt;&lt;font style=&quot;font-size: 14px;&quot;&gt;×&lt;/font&gt;&lt;/span&gt;" style="ellipse;whiteSpace=wrap;html=1;aspect=fixed;labelBackgroundColor=none;fillColor=none;" vertex="1" parent="PTHBT9e02o0WNVCgfB87-45">
          <mxGeometry x="210" y="120" width="20" height="20" as="geometry" />
        </mxCell>
        <mxCell id="PTHBT9e02o0WNVCgfB87-29" style="edgeStyle=orthogonalEdgeStyle;rounded=0;orthogonalLoop=1;jettySize=auto;html=1;" edge="1" parent="PTHBT9e02o0WNVCgfB87-45" source="PTHBT9e02o0WNVCgfB87-7">
          <mxGeometry relative="1" as="geometry">
            <mxPoint x="420" y="70" as="targetPoint" />
          </mxGeometry>
        </mxCell>
        <mxCell id="PTHBT9e02o0WNVCgfB87-7" value="&lt;font style=&quot;font-size: 14px;&quot;&gt;+&lt;/font&gt;" style="ellipse;whiteSpace=wrap;html=1;aspect=fixed;labelBackgroundColor=none;fillColor=none;" vertex="1" parent="PTHBT9e02o0WNVCgfB87-45">
          <mxGeometry x="210" y="60" width="20" height="20" as="geometry" />
        </mxCell>
        <mxCell id="PTHBT9e02o0WNVCgfB87-14" style="edgeStyle=orthogonalEdgeStyle;rounded=0;orthogonalLoop=1;jettySize=auto;html=1;entryX=0;entryY=0.5;entryDx=0;entryDy=0;" edge="1" parent="PTHBT9e02o0WNVCgfB87-45" source="PTHBT9e02o0WNVCgfB87-8" target="PTHBT9e02o0WNVCgfB87-7">
          <mxGeometry relative="1" as="geometry">
            <Array as="points">
              <mxPoint x="160" y="70" />
              <mxPoint x="160" y="70" />
            </Array>
          </mxGeometry>
        </mxCell>
        <mxCell id="PTHBT9e02o0WNVCgfB87-8" value="&lt;span style=&quot;color: rgb(51, 51, 51); font-family: Arial, sans-serif; font-size: 14px; text-align: start;&quot;&gt;×&lt;/span&gt;" style="ellipse;whiteSpace=wrap;html=1;aspect=fixed;labelBackgroundColor=none;fillColor=#EA6B66;" vertex="1" parent="PTHBT9e02o0WNVCgfB87-45">
          <mxGeometry x="90" y="60" width="20" height="20" as="geometry" />
        </mxCell>
        <mxCell id="PTHBT9e02o0WNVCgfB87-36" style="edgeStyle=orthogonalEdgeStyle;rounded=0;orthogonalLoop=1;jettySize=auto;html=1;" edge="1" parent="PTHBT9e02o0WNVCgfB87-45" source="PTHBT9e02o0WNVCgfB87-13">
          <mxGeometry relative="1" as="geometry">
            <mxPoint x="420" y="200" as="targetPoint" />
            <Array as="points">
              <mxPoint x="340" y="200" />
              <mxPoint x="400" y="200" />
            </Array>
          </mxGeometry>
        </mxCell>
        <mxCell id="PTHBT9e02o0WNVCgfB87-13" value="&lt;span style=&quot;color: rgb(51, 51, 51); font-family: Arial, sans-serif; text-align: start; background-color: rgb(255, 255, 255);&quot;&gt;&lt;font style=&quot;font-size: 14px;&quot;&gt;×&lt;/font&gt;&lt;/span&gt;" style="ellipse;whiteSpace=wrap;html=1;aspect=fixed;labelBackgroundColor=none;fillColor=none;" vertex="1" parent="PTHBT9e02o0WNVCgfB87-45">
          <mxGeometry x="330" y="120" width="20" height="20" as="geometry" />
        </mxCell>
        <mxCell id="PTHBT9e02o0WNVCgfB87-16" value="&lt;span style=&quot;font-family: &amp;quot;Helvetica Neue&amp;quot;, Helvetica, Arial, &amp;quot;PingFang SC&amp;quot;, &amp;quot;Hiragino Sans GB&amp;quot;, &amp;quot;Microsoft YaHei&amp;quot;, &amp;quot;WenQuanYi Micro Hei&amp;quot;, sans-serif; font-size: 14px; text-align: start;&quot;&gt;tanh&lt;/span&gt;" style="rounded=0;whiteSpace=wrap;html=1;fillColor=#FFB570;strokeColor=default;fontColor=default;labelBackgroundColor=none;fontSize=14;" vertex="1" parent="PTHBT9e02o0WNVCgfB87-45">
          <mxGeometry x="320" y="90" width="40" height="20" as="geometry" />
        </mxCell>
        <mxCell id="PTHBT9e02o0WNVCgfB87-21" style="edgeStyle=orthogonalEdgeStyle;rounded=0;orthogonalLoop=1;jettySize=auto;html=1;entryX=0;entryY=0.5;entryDx=0;entryDy=0;" edge="1" parent="PTHBT9e02o0WNVCgfB87-45">
          <mxGeometry relative="1" as="geometry">
            <mxPoint y="71" as="sourcePoint" />
            <mxPoint x="90" y="71" as="targetPoint" />
          </mxGeometry>
        </mxCell>
        <mxCell id="PTHBT9e02o0WNVCgfB87-23" style="edgeStyle=orthogonalEdgeStyle;rounded=0;orthogonalLoop=1;jettySize=auto;html=1;entryX=0.5;entryY=1;entryDx=0;entryDy=0;" edge="1" parent="PTHBT9e02o0WNVCgfB87-45" target="PTHBT9e02o0WNVCgfB87-5">
          <mxGeometry relative="1" as="geometry">
            <mxPoint y="200" as="sourcePoint" />
            <mxPoint x="280" y="220" as="targetPoint" />
            <Array as="points">
              <mxPoint x="180" y="200" />
              <mxPoint x="280" y="200" />
            </Array>
          </mxGeometry>
        </mxCell>
        <mxCell id="PTHBT9e02o0WNVCgfB87-24" value="" style="endArrow=classic;html=1;rounded=0;" edge="1" parent="PTHBT9e02o0WNVCgfB87-45">
          <mxGeometry width="50" height="50" relative="1" as="geometry">
            <mxPoint x="100" y="200" as="sourcePoint" />
            <mxPoint x="99.82999999999998" y="180" as="targetPoint" />
          </mxGeometry>
        </mxCell>
        <mxCell id="PTHBT9e02o0WNVCgfB87-25" value="" style="endArrow=classic;html=1;rounded=0;" edge="1" parent="PTHBT9e02o0WNVCgfB87-45">
          <mxGeometry width="50" height="50" relative="1" as="geometry">
            <mxPoint x="160" y="200" as="sourcePoint" />
            <mxPoint x="159.82999999999998" y="180" as="targetPoint" />
          </mxGeometry>
        </mxCell>
        <mxCell id="PTHBT9e02o0WNVCgfB87-26" value="" style="endArrow=classic;html=1;rounded=0;" edge="1" parent="PTHBT9e02o0WNVCgfB87-45">
          <mxGeometry width="50" height="50" relative="1" as="geometry">
            <mxPoint x="220" y="200" as="sourcePoint" />
            <mxPoint x="219.82999999999998" y="180" as="targetPoint" />
          </mxGeometry>
        </mxCell>
        <mxCell id="PTHBT9e02o0WNVCgfB87-27" value="" style="endArrow=none;html=1;rounded=0;endFill=0;" edge="1" parent="PTHBT9e02o0WNVCgfB87-45">
          <mxGeometry width="50" height="50" relative="1" as="geometry">
            <mxPoint x="339.97" y="90" as="sourcePoint" />
            <mxPoint x="339.79999999999995" y="70" as="targetPoint" />
          </mxGeometry>
        </mxCell>
        <mxCell id="PTHBT9e02o0WNVCgfB87-28" value="" style="endArrow=none;html=1;rounded=0;endFill=0;" edge="1" parent="PTHBT9e02o0WNVCgfB87-45">
          <mxGeometry width="50" height="50" relative="1" as="geometry">
            <mxPoint x="60" y="240" as="sourcePoint" />
            <mxPoint x="60" y="200" as="targetPoint" />
            <Array as="points">
              <mxPoint x="60.170000000000016" y="210" />
            </Array>
          </mxGeometry>
        </mxCell>
        <mxCell id="PTHBT9e02o0WNVCgfB87-34" style="edgeStyle=orthogonalEdgeStyle;rounded=0;orthogonalLoop=1;jettySize=auto;html=1;endArrow=none;endFill=0;" edge="1" parent="PTHBT9e02o0WNVCgfB87-45">
          <mxGeometry relative="1" as="geometry">
            <mxPoint x="339.96000000000004" y="120" as="targetPoint" />
            <mxPoint x="339.96000000000004" y="110" as="sourcePoint" />
          </mxGeometry>
        </mxCell>
        <mxCell id="PTHBT9e02o0WNVCgfB87-37" value="" style="endArrow=none;html=1;rounded=0;endFill=0;" edge="1" parent="PTHBT9e02o0WNVCgfB87-45">
          <mxGeometry width="50" height="50" relative="1" as="geometry">
            <mxPoint x="380" y="200" as="sourcePoint" />
            <mxPoint x="380" y="80" as="targetPoint" />
            <Array as="points">
              <mxPoint x="380.1700000000001" y="150" />
            </Array>
          </mxGeometry>
        </mxCell>
        <mxCell id="PTHBT9e02o0WNVCgfB87-38" value="" style="endArrow=classic;html=1;rounded=0;endFill=1;" edge="1" parent="PTHBT9e02o0WNVCgfB87-45">
          <mxGeometry width="50" height="50" relative="1" as="geometry">
            <mxPoint x="380" y="60" as="sourcePoint" />
            <mxPoint x="380" y="20" as="targetPoint" />
            <Array as="points">
              <mxPoint x="380.1700000000001" y="50" />
            </Array>
          </mxGeometry>
        </mxCell>
        <mxCell id="PTHBT9e02o0WNVCgfB87-41" value="&lt;font style=&quot;font-size: 14px;&quot;&gt;x&amp;nbsp;&lt;/font&gt;" style="ellipse;whiteSpace=wrap;html=1;aspect=fixed;fillColor=#7EA6E0;" vertex="1" parent="PTHBT9e02o0WNVCgfB87-45">
          <mxGeometry x="50" y="240" width="20" height="20" as="geometry" />
        </mxCell>
        <mxCell id="PTHBT9e02o0WNVCgfB87-42" value="t" style="text;html=1;align=center;verticalAlign=middle;resizable=0;points=[];autosize=1;strokeColor=none;fillColor=none;fontSize=8;" vertex="1" parent="PTHBT9e02o0WNVCgfB87-45">
          <mxGeometry x="48" y="242" width="30" height="20" as="geometry" />
        </mxCell>
        <mxCell id="PTHBT9e02o0WNVCgfB87-43" value="&lt;font style=&quot;font-size: 14px;&quot;&gt;h&amp;nbsp;&lt;/font&gt;" style="ellipse;whiteSpace=wrap;html=1;aspect=fixed;fillColor=#7EA6E0;" vertex="1" parent="PTHBT9e02o0WNVCgfB87-45">
          <mxGeometry x="369" width="20" height="20" as="geometry" />
        </mxCell>
        <mxCell id="PTHBT9e02o0WNVCgfB87-44" value="t" style="text;html=1;align=center;verticalAlign=middle;resizable=0;points=[];autosize=1;strokeColor=none;fillColor=none;fontSize=8;" vertex="1" parent="PTHBT9e02o0WNVCgfB87-45">
          <mxGeometry x="368" y="2" width="30" height="20" as="geometry" />
        </mxCell>
        <mxCell id="PTHBT9e02o0WNVCgfB87-112" value="&lt;span style=&quot;color: rgb(51, 51, 51); font-family: Arial, sans-serif; font-size: 14px; text-align: start;&quot;&gt;×&lt;/span&gt;" style="ellipse;whiteSpace=wrap;html=1;aspect=fixed;labelBackgroundColor=none;fillColor=#EA6B66;" vertex="1" parent="PTHBT9e02o0WNVCgfB87-45">
          <mxGeometry x="210" y="120" width="20" height="20" as="geometry" />
        </mxCell>
        <mxCell id="PTHBT9e02o0WNVCgfB87-113" value="&lt;span style=&quot;color: rgb(51, 51, 51); font-family: Arial, sans-serif; font-size: 14px; text-align: start;&quot;&gt;×&lt;/span&gt;" style="ellipse;whiteSpace=wrap;html=1;aspect=fixed;labelBackgroundColor=none;fillColor=#EA6B66;" vertex="1" parent="PTHBT9e02o0WNVCgfB87-45">
          <mxGeometry x="330" y="120" width="20" height="20" as="geometry" />
        </mxCell>
        <mxCell id="PTHBT9e02o0WNVCgfB87-114" value="&lt;span style=&quot;color: rgb(51, 51, 51); font-family: Arial, sans-serif; font-size: 14px; text-align: start;&quot;&gt;+&lt;/span&gt;" style="ellipse;whiteSpace=wrap;html=1;aspect=fixed;labelBackgroundColor=none;fillColor=#EA6B66;" vertex="1" parent="PTHBT9e02o0WNVCgfB87-45">
          <mxGeometry x="210" y="60" width="20" height="20" as="geometry" />
        </mxCell>
        <mxCell id="PTHBT9e02o0WNVCgfB87-115" value="" style="rounded=1;whiteSpace=wrap;html=1;fillColor=none;" vertex="1" parent="PTHBT9e02o0WNVCgfB87-45">
          <mxGeometry x="18" y="40" width="380" height="180" as="geometry" />
        </mxCell>
        <mxCell id="PTHBT9e02o0WNVCgfB87-46" value="" style="group" vertex="1" connectable="0" parent="PTHBT9e02o0WNVCgfB87-117">
          <mxGeometry x="800" width="420" height="262" as="geometry" />
        </mxCell>
        <mxCell id="PTHBT9e02o0WNVCgfB87-47" style="edgeStyle=orthogonalEdgeStyle;rounded=0;orthogonalLoop=1;jettySize=auto;html=1;entryX=0.5;entryY=1;entryDx=0;entryDy=0;" edge="1" parent="PTHBT9e02o0WNVCgfB87-46" source="PTHBT9e02o0WNVCgfB87-48" target="PTHBT9e02o0WNVCgfB87-60">
          <mxGeometry relative="1" as="geometry" />
        </mxCell>
        <mxCell id="PTHBT9e02o0WNVCgfB87-48" value="&lt;span style=&quot;font-family: &amp;quot;Helvetica Neue&amp;quot;, Helvetica, Arial, &amp;quot;PingFang SC&amp;quot;, &amp;quot;Hiragino Sans GB&amp;quot;, &amp;quot;Microsoft YaHei&amp;quot;, &amp;quot;WenQuanYi Micro Hei&amp;quot;, sans-serif; font-size: 14px; text-align: start;&quot;&gt;σ&lt;/span&gt;" style="rounded=0;whiteSpace=wrap;html=1;fillColor=none;strokeColor=default;fontColor=default;labelBackgroundColor=none;fontSize=14;" vertex="1" parent="PTHBT9e02o0WNVCgfB87-46">
          <mxGeometry x="80" y="160" width="40" height="20" as="geometry" />
        </mxCell>
        <mxCell id="PTHBT9e02o0WNVCgfB87-49" style="edgeStyle=orthogonalEdgeStyle;rounded=0;orthogonalLoop=1;jettySize=auto;html=1;entryX=0;entryY=0.5;entryDx=0;entryDy=0;" edge="1" parent="PTHBT9e02o0WNVCgfB87-46" source="PTHBT9e02o0WNVCgfB87-50" target="PTHBT9e02o0WNVCgfB87-56">
          <mxGeometry relative="1" as="geometry">
            <Array as="points">
              <mxPoint x="160" y="130" />
            </Array>
          </mxGeometry>
        </mxCell>
        <mxCell id="PTHBT9e02o0WNVCgfB87-50" value="&lt;span style=&quot;font-family: &amp;quot;Helvetica Neue&amp;quot;, Helvetica, Arial, &amp;quot;PingFang SC&amp;quot;, &amp;quot;Hiragino Sans GB&amp;quot;, &amp;quot;Microsoft YaHei&amp;quot;, &amp;quot;WenQuanYi Micro Hei&amp;quot;, sans-serif; font-size: 14px; text-align: start;&quot;&gt;σ&lt;/span&gt;" style="rounded=0;whiteSpace=wrap;html=1;fillColor=none;strokeColor=default;fontColor=default;labelBackgroundColor=none;fontSize=14;" vertex="1" parent="PTHBT9e02o0WNVCgfB87-46">
          <mxGeometry x="140" y="160" width="40" height="20" as="geometry" />
        </mxCell>
        <mxCell id="PTHBT9e02o0WNVCgfB87-51" style="edgeStyle=orthogonalEdgeStyle;rounded=0;orthogonalLoop=1;jettySize=auto;html=1;entryX=0.5;entryY=1;entryDx=0;entryDy=0;" edge="1" parent="PTHBT9e02o0WNVCgfB87-46" source="PTHBT9e02o0WNVCgfB87-52" target="PTHBT9e02o0WNVCgfB87-56">
          <mxGeometry relative="1" as="geometry" />
        </mxCell>
        <mxCell id="PTHBT9e02o0WNVCgfB87-52" value="&lt;span style=&quot;font-family: &amp;quot;Helvetica Neue&amp;quot;, Helvetica, Arial, &amp;quot;PingFang SC&amp;quot;, &amp;quot;Hiragino Sans GB&amp;quot;, &amp;quot;Microsoft YaHei&amp;quot;, &amp;quot;WenQuanYi Micro Hei&amp;quot;, sans-serif; font-size: 14px; text-align: start;&quot;&gt;tanh&lt;/span&gt;" style="rounded=0;whiteSpace=wrap;html=1;fillColor=none;strokeColor=default;fontColor=default;labelBackgroundColor=none;fontSize=14;" vertex="1" parent="PTHBT9e02o0WNVCgfB87-46">
          <mxGeometry x="200" y="160" width="40" height="20" as="geometry" />
        </mxCell>
        <mxCell id="PTHBT9e02o0WNVCgfB87-53" style="edgeStyle=orthogonalEdgeStyle;rounded=0;orthogonalLoop=1;jettySize=auto;html=1;entryX=0;entryY=0.5;entryDx=0;entryDy=0;" edge="1" parent="PTHBT9e02o0WNVCgfB87-46" source="PTHBT9e02o0WNVCgfB87-54" target="PTHBT9e02o0WNVCgfB87-62">
          <mxGeometry relative="1" as="geometry">
            <Array as="points">
              <mxPoint x="280" y="130" />
            </Array>
          </mxGeometry>
        </mxCell>
        <mxCell id="PTHBT9e02o0WNVCgfB87-54" value="&lt;span style=&quot;font-family: &amp;quot;Helvetica Neue&amp;quot;, Helvetica, Arial, &amp;quot;PingFang SC&amp;quot;, &amp;quot;Hiragino Sans GB&amp;quot;, &amp;quot;Microsoft YaHei&amp;quot;, &amp;quot;WenQuanYi Micro Hei&amp;quot;, sans-serif; font-size: 14px; text-align: start;&quot;&gt;σ&lt;/span&gt;" style="rounded=0;whiteSpace=wrap;html=1;fillColor=none;strokeColor=default;fontColor=default;labelBackgroundColor=none;fontSize=14;" vertex="1" parent="PTHBT9e02o0WNVCgfB87-46">
          <mxGeometry x="260" y="160" width="40" height="20" as="geometry" />
        </mxCell>
        <mxCell id="PTHBT9e02o0WNVCgfB87-55" style="edgeStyle=orthogonalEdgeStyle;rounded=0;orthogonalLoop=1;jettySize=auto;html=1;entryX=0.5;entryY=1;entryDx=0;entryDy=0;" edge="1" parent="PTHBT9e02o0WNVCgfB87-46" source="PTHBT9e02o0WNVCgfB87-56" target="PTHBT9e02o0WNVCgfB87-58">
          <mxGeometry relative="1" as="geometry" />
        </mxCell>
        <mxCell id="PTHBT9e02o0WNVCgfB87-56" value="&lt;span style=&quot;color: rgb(51, 51, 51); font-family: Arial, sans-serif; text-align: start; background-color: rgb(255, 255, 255);&quot;&gt;&lt;font style=&quot;font-size: 14px;&quot;&gt;×&lt;/font&gt;&lt;/span&gt;" style="ellipse;whiteSpace=wrap;html=1;aspect=fixed;labelBackgroundColor=none;fillColor=none;" vertex="1" parent="PTHBT9e02o0WNVCgfB87-46">
          <mxGeometry x="210" y="120" width="20" height="20" as="geometry" />
        </mxCell>
        <mxCell id="PTHBT9e02o0WNVCgfB87-57" style="edgeStyle=orthogonalEdgeStyle;rounded=0;orthogonalLoop=1;jettySize=auto;html=1;" edge="1" parent="PTHBT9e02o0WNVCgfB87-46" source="PTHBT9e02o0WNVCgfB87-58">
          <mxGeometry relative="1" as="geometry">
            <mxPoint x="420" y="70" as="targetPoint" />
          </mxGeometry>
        </mxCell>
        <mxCell id="PTHBT9e02o0WNVCgfB87-58" value="&lt;font style=&quot;font-size: 14px;&quot;&gt;+&lt;/font&gt;" style="ellipse;whiteSpace=wrap;html=1;aspect=fixed;labelBackgroundColor=none;fillColor=none;" vertex="1" parent="PTHBT9e02o0WNVCgfB87-46">
          <mxGeometry x="210" y="60" width="20" height="20" as="geometry" />
        </mxCell>
        <mxCell id="PTHBT9e02o0WNVCgfB87-59" style="edgeStyle=orthogonalEdgeStyle;rounded=0;orthogonalLoop=1;jettySize=auto;html=1;entryX=0;entryY=0.5;entryDx=0;entryDy=0;" edge="1" parent="PTHBT9e02o0WNVCgfB87-46" source="PTHBT9e02o0WNVCgfB87-60" target="PTHBT9e02o0WNVCgfB87-58">
          <mxGeometry relative="1" as="geometry">
            <Array as="points">
              <mxPoint x="160" y="70" />
              <mxPoint x="160" y="70" />
            </Array>
          </mxGeometry>
        </mxCell>
        <mxCell id="PTHBT9e02o0WNVCgfB87-60" value="&lt;span style=&quot;color: rgb(51, 51, 51); font-family: Arial, sans-serif; font-size: 14px; text-align: start; background-color: rgb(255, 255, 255);&quot;&gt;×&lt;/span&gt;" style="ellipse;whiteSpace=wrap;html=1;aspect=fixed;labelBackgroundColor=none;fillColor=none;" vertex="1" parent="PTHBT9e02o0WNVCgfB87-46">
          <mxGeometry x="90" y="60" width="20" height="20" as="geometry" />
        </mxCell>
        <mxCell id="PTHBT9e02o0WNVCgfB87-61" style="edgeStyle=orthogonalEdgeStyle;rounded=0;orthogonalLoop=1;jettySize=auto;html=1;" edge="1" parent="PTHBT9e02o0WNVCgfB87-46" source="PTHBT9e02o0WNVCgfB87-62">
          <mxGeometry relative="1" as="geometry">
            <mxPoint x="420" y="200" as="targetPoint" />
            <Array as="points">
              <mxPoint x="340" y="200" />
              <mxPoint x="400" y="200" />
            </Array>
          </mxGeometry>
        </mxCell>
        <mxCell id="PTHBT9e02o0WNVCgfB87-62" value="&lt;span style=&quot;color: rgb(51, 51, 51); font-family: Arial, sans-serif; text-align: start; background-color: rgb(255, 255, 255);&quot;&gt;&lt;font style=&quot;font-size: 14px;&quot;&gt;×&lt;/font&gt;&lt;/span&gt;" style="ellipse;whiteSpace=wrap;html=1;aspect=fixed;labelBackgroundColor=none;fillColor=none;" vertex="1" parent="PTHBT9e02o0WNVCgfB87-46">
          <mxGeometry x="330" y="120" width="20" height="20" as="geometry" />
        </mxCell>
        <mxCell id="PTHBT9e02o0WNVCgfB87-63" value="&lt;span style=&quot;font-family: &amp;quot;Helvetica Neue&amp;quot;, Helvetica, Arial, &amp;quot;PingFang SC&amp;quot;, &amp;quot;Hiragino Sans GB&amp;quot;, &amp;quot;Microsoft YaHei&amp;quot;, &amp;quot;WenQuanYi Micro Hei&amp;quot;, sans-serif; font-size: 14px; text-align: start;&quot;&gt;tanh&lt;/span&gt;" style="rounded=0;whiteSpace=wrap;html=1;fillColor=none;strokeColor=default;fontColor=default;labelBackgroundColor=none;fontSize=14;" vertex="1" parent="PTHBT9e02o0WNVCgfB87-46">
          <mxGeometry x="320" y="90" width="40" height="20" as="geometry" />
        </mxCell>
        <mxCell id="PTHBT9e02o0WNVCgfB87-64" style="edgeStyle=orthogonalEdgeStyle;rounded=0;orthogonalLoop=1;jettySize=auto;html=1;entryX=0;entryY=0.5;entryDx=0;entryDy=0;" edge="1" parent="PTHBT9e02o0WNVCgfB87-46">
          <mxGeometry relative="1" as="geometry">
            <mxPoint y="71" as="sourcePoint" />
            <mxPoint x="90" y="71" as="targetPoint" />
          </mxGeometry>
        </mxCell>
        <mxCell id="PTHBT9e02o0WNVCgfB87-65" style="edgeStyle=orthogonalEdgeStyle;rounded=0;orthogonalLoop=1;jettySize=auto;html=1;entryX=0.5;entryY=1;entryDx=0;entryDy=0;" edge="1" parent="PTHBT9e02o0WNVCgfB87-46" target="PTHBT9e02o0WNVCgfB87-54">
          <mxGeometry relative="1" as="geometry">
            <mxPoint y="200" as="sourcePoint" />
            <mxPoint x="280" y="220" as="targetPoint" />
            <Array as="points">
              <mxPoint x="180" y="200" />
              <mxPoint x="280" y="200" />
            </Array>
          </mxGeometry>
        </mxCell>
        <mxCell id="PTHBT9e02o0WNVCgfB87-66" value="" style="endArrow=classic;html=1;rounded=0;" edge="1" parent="PTHBT9e02o0WNVCgfB87-46">
          <mxGeometry width="50" height="50" relative="1" as="geometry">
            <mxPoint x="100" y="200" as="sourcePoint" />
            <mxPoint x="99.82999999999998" y="180" as="targetPoint" />
          </mxGeometry>
        </mxCell>
        <mxCell id="PTHBT9e02o0WNVCgfB87-67" value="" style="endArrow=classic;html=1;rounded=0;" edge="1" parent="PTHBT9e02o0WNVCgfB87-46">
          <mxGeometry width="50" height="50" relative="1" as="geometry">
            <mxPoint x="160" y="200" as="sourcePoint" />
            <mxPoint x="159.82999999999998" y="180" as="targetPoint" />
          </mxGeometry>
        </mxCell>
        <mxCell id="PTHBT9e02o0WNVCgfB87-68" value="" style="endArrow=classic;html=1;rounded=0;" edge="1" parent="PTHBT9e02o0WNVCgfB87-46">
          <mxGeometry width="50" height="50" relative="1" as="geometry">
            <mxPoint x="220" y="200" as="sourcePoint" />
            <mxPoint x="219.82999999999998" y="180" as="targetPoint" />
          </mxGeometry>
        </mxCell>
        <mxCell id="PTHBT9e02o0WNVCgfB87-69" value="" style="endArrow=none;html=1;rounded=0;endFill=0;" edge="1" parent="PTHBT9e02o0WNVCgfB87-46">
          <mxGeometry width="50" height="50" relative="1" as="geometry">
            <mxPoint x="339.97" y="90" as="sourcePoint" />
            <mxPoint x="339.79999999999995" y="70" as="targetPoint" />
          </mxGeometry>
        </mxCell>
        <mxCell id="PTHBT9e02o0WNVCgfB87-70" value="" style="endArrow=none;html=1;rounded=0;endFill=0;" edge="1" parent="PTHBT9e02o0WNVCgfB87-46">
          <mxGeometry width="50" height="50" relative="1" as="geometry">
            <mxPoint x="60" y="240" as="sourcePoint" />
            <mxPoint x="60" y="200" as="targetPoint" />
            <Array as="points">
              <mxPoint x="60.170000000000016" y="210" />
            </Array>
          </mxGeometry>
        </mxCell>
        <mxCell id="PTHBT9e02o0WNVCgfB87-71" style="edgeStyle=orthogonalEdgeStyle;rounded=0;orthogonalLoop=1;jettySize=auto;html=1;endArrow=none;endFill=0;" edge="1" parent="PTHBT9e02o0WNVCgfB87-46">
          <mxGeometry relative="1" as="geometry">
            <mxPoint x="339.96000000000004" y="120" as="targetPoint" />
            <mxPoint x="339.96000000000004" y="110" as="sourcePoint" />
          </mxGeometry>
        </mxCell>
        <mxCell id="PTHBT9e02o0WNVCgfB87-72" value="" style="endArrow=none;html=1;rounded=0;endFill=0;" edge="1" parent="PTHBT9e02o0WNVCgfB87-46">
          <mxGeometry width="50" height="50" relative="1" as="geometry">
            <mxPoint x="380" y="200" as="sourcePoint" />
            <mxPoint x="380" y="80" as="targetPoint" />
            <Array as="points">
              <mxPoint x="380.1700000000001" y="150" />
            </Array>
          </mxGeometry>
        </mxCell>
        <mxCell id="PTHBT9e02o0WNVCgfB87-73" value="" style="endArrow=classic;html=1;rounded=0;endFill=1;" edge="1" parent="PTHBT9e02o0WNVCgfB87-46">
          <mxGeometry width="50" height="50" relative="1" as="geometry">
            <mxPoint x="380" y="60" as="sourcePoint" />
            <mxPoint x="380" y="20" as="targetPoint" />
            <Array as="points">
              <mxPoint x="380.1700000000001" y="50" />
            </Array>
          </mxGeometry>
        </mxCell>
        <mxCell id="PTHBT9e02o0WNVCgfB87-74" value="" style="rounded=1;whiteSpace=wrap;html=1;fillColor=#A8DADC;fillStyle=auto;opacity=80;" vertex="1" parent="PTHBT9e02o0WNVCgfB87-46">
          <mxGeometry x="20" y="40" width="380" height="180" as="geometry" />
        </mxCell>
        <mxCell id="PTHBT9e02o0WNVCgfB87-75" value="&lt;font style=&quot;font-size: 14px;&quot;&gt;x&amp;nbsp;&lt;/font&gt;" style="ellipse;whiteSpace=wrap;html=1;aspect=fixed;fillColor=#7EA6E0;" vertex="1" parent="PTHBT9e02o0WNVCgfB87-46">
          <mxGeometry x="50" y="240" width="20" height="20" as="geometry" />
        </mxCell>
        <mxCell id="PTHBT9e02o0WNVCgfB87-76" value="t" style="text;html=1;align=center;verticalAlign=middle;resizable=0;points=[];autosize=1;strokeColor=none;fillColor=none;fontSize=8;" vertex="1" parent="PTHBT9e02o0WNVCgfB87-46">
          <mxGeometry x="48" y="242" width="30" height="20" as="geometry" />
        </mxCell>
        <mxCell id="PTHBT9e02o0WNVCgfB87-77" value="&lt;font style=&quot;font-size: 14px;&quot;&gt;h&amp;nbsp;&lt;/font&gt;" style="ellipse;whiteSpace=wrap;html=1;aspect=fixed;fillColor=#7EA6E0;" vertex="1" parent="PTHBT9e02o0WNVCgfB87-46">
          <mxGeometry x="369" width="20" height="20" as="geometry" />
        </mxCell>
        <mxCell id="PTHBT9e02o0WNVCgfB87-78" value="&lt;span style=&quot;font-size: 5px;&quot;&gt;t+1&lt;/span&gt;" style="text;html=1;align=center;verticalAlign=middle;resizable=0;points=[];autosize=1;strokeColor=none;fillColor=none;fontSize=8;" vertex="1" parent="PTHBT9e02o0WNVCgfB87-46">
          <mxGeometry x="368" y="2" width="30" height="20" as="geometry" />
        </mxCell>
        <mxCell id="PTHBT9e02o0WNVCgfB87-79" value="" style="group" vertex="1" connectable="0" parent="PTHBT9e02o0WNVCgfB87-117">
          <mxGeometry width="420" height="262" as="geometry" />
        </mxCell>
        <mxCell id="PTHBT9e02o0WNVCgfB87-80" style="edgeStyle=orthogonalEdgeStyle;rounded=0;orthogonalLoop=1;jettySize=auto;html=1;entryX=0.5;entryY=1;entryDx=0;entryDy=0;" edge="1" parent="PTHBT9e02o0WNVCgfB87-79" source="PTHBT9e02o0WNVCgfB87-81" target="PTHBT9e02o0WNVCgfB87-93">
          <mxGeometry relative="1" as="geometry" />
        </mxCell>
        <mxCell id="PTHBT9e02o0WNVCgfB87-81" value="&lt;span style=&quot;font-family: &amp;quot;Helvetica Neue&amp;quot;, Helvetica, Arial, &amp;quot;PingFang SC&amp;quot;, &amp;quot;Hiragino Sans GB&amp;quot;, &amp;quot;Microsoft YaHei&amp;quot;, &amp;quot;WenQuanYi Micro Hei&amp;quot;, sans-serif; font-size: 14px; text-align: start;&quot;&gt;σ&lt;/span&gt;" style="rounded=0;whiteSpace=wrap;html=1;fillColor=none;strokeColor=default;fontColor=default;labelBackgroundColor=none;fontSize=14;" vertex="1" parent="PTHBT9e02o0WNVCgfB87-79">
          <mxGeometry x="80" y="160" width="40" height="20" as="geometry" />
        </mxCell>
        <mxCell id="PTHBT9e02o0WNVCgfB87-82" style="edgeStyle=orthogonalEdgeStyle;rounded=0;orthogonalLoop=1;jettySize=auto;html=1;entryX=0;entryY=0.5;entryDx=0;entryDy=0;" edge="1" parent="PTHBT9e02o0WNVCgfB87-79" source="PTHBT9e02o0WNVCgfB87-83" target="PTHBT9e02o0WNVCgfB87-89">
          <mxGeometry relative="1" as="geometry">
            <Array as="points">
              <mxPoint x="160" y="130" />
            </Array>
          </mxGeometry>
        </mxCell>
        <mxCell id="PTHBT9e02o0WNVCgfB87-83" value="&lt;span style=&quot;font-family: &amp;quot;Helvetica Neue&amp;quot;, Helvetica, Arial, &amp;quot;PingFang SC&amp;quot;, &amp;quot;Hiragino Sans GB&amp;quot;, &amp;quot;Microsoft YaHei&amp;quot;, &amp;quot;WenQuanYi Micro Hei&amp;quot;, sans-serif; font-size: 14px; text-align: start;&quot;&gt;σ&lt;/span&gt;" style="rounded=0;whiteSpace=wrap;html=1;fillColor=none;strokeColor=default;fontColor=default;labelBackgroundColor=none;fontSize=14;" vertex="1" parent="PTHBT9e02o0WNVCgfB87-79">
          <mxGeometry x="140" y="160" width="40" height="20" as="geometry" />
        </mxCell>
        <mxCell id="PTHBT9e02o0WNVCgfB87-84" style="edgeStyle=orthogonalEdgeStyle;rounded=0;orthogonalLoop=1;jettySize=auto;html=1;entryX=0.5;entryY=1;entryDx=0;entryDy=0;" edge="1" parent="PTHBT9e02o0WNVCgfB87-79" source="PTHBT9e02o0WNVCgfB87-85" target="PTHBT9e02o0WNVCgfB87-89">
          <mxGeometry relative="1" as="geometry" />
        </mxCell>
        <mxCell id="PTHBT9e02o0WNVCgfB87-85" value="&lt;span style=&quot;font-family: &amp;quot;Helvetica Neue&amp;quot;, Helvetica, Arial, &amp;quot;PingFang SC&amp;quot;, &amp;quot;Hiragino Sans GB&amp;quot;, &amp;quot;Microsoft YaHei&amp;quot;, &amp;quot;WenQuanYi Micro Hei&amp;quot;, sans-serif; font-size: 14px; text-align: start;&quot;&gt;tanh&lt;/span&gt;" style="rounded=0;whiteSpace=wrap;html=1;fillColor=none;strokeColor=default;fontColor=default;labelBackgroundColor=none;fontSize=14;" vertex="1" parent="PTHBT9e02o0WNVCgfB87-79">
          <mxGeometry x="200" y="160" width="40" height="20" as="geometry" />
        </mxCell>
        <mxCell id="PTHBT9e02o0WNVCgfB87-86" style="edgeStyle=orthogonalEdgeStyle;rounded=0;orthogonalLoop=1;jettySize=auto;html=1;entryX=0;entryY=0.5;entryDx=0;entryDy=0;" edge="1" parent="PTHBT9e02o0WNVCgfB87-79" source="PTHBT9e02o0WNVCgfB87-87" target="PTHBT9e02o0WNVCgfB87-95">
          <mxGeometry relative="1" as="geometry">
            <Array as="points">
              <mxPoint x="280" y="130" />
            </Array>
          </mxGeometry>
        </mxCell>
        <mxCell id="PTHBT9e02o0WNVCgfB87-87" value="&lt;span style=&quot;font-family: &amp;quot;Helvetica Neue&amp;quot;, Helvetica, Arial, &amp;quot;PingFang SC&amp;quot;, &amp;quot;Hiragino Sans GB&amp;quot;, &amp;quot;Microsoft YaHei&amp;quot;, &amp;quot;WenQuanYi Micro Hei&amp;quot;, sans-serif; font-size: 14px; text-align: start;&quot;&gt;σ&lt;/span&gt;" style="rounded=0;whiteSpace=wrap;html=1;fillColor=none;strokeColor=default;fontColor=default;labelBackgroundColor=none;fontSize=14;" vertex="1" parent="PTHBT9e02o0WNVCgfB87-79">
          <mxGeometry x="260" y="160" width="40" height="20" as="geometry" />
        </mxCell>
        <mxCell id="PTHBT9e02o0WNVCgfB87-88" style="edgeStyle=orthogonalEdgeStyle;rounded=0;orthogonalLoop=1;jettySize=auto;html=1;entryX=0.5;entryY=1;entryDx=0;entryDy=0;" edge="1" parent="PTHBT9e02o0WNVCgfB87-79" source="PTHBT9e02o0WNVCgfB87-89" target="PTHBT9e02o0WNVCgfB87-91">
          <mxGeometry relative="1" as="geometry" />
        </mxCell>
        <mxCell id="PTHBT9e02o0WNVCgfB87-89" value="&lt;span style=&quot;color: rgb(51, 51, 51); font-family: Arial, sans-serif; text-align: start; background-color: rgb(255, 255, 255);&quot;&gt;&lt;font style=&quot;font-size: 14px;&quot;&gt;×&lt;/font&gt;&lt;/span&gt;" style="ellipse;whiteSpace=wrap;html=1;aspect=fixed;labelBackgroundColor=none;fillColor=none;" vertex="1" parent="PTHBT9e02o0WNVCgfB87-79">
          <mxGeometry x="210" y="120" width="20" height="20" as="geometry" />
        </mxCell>
        <mxCell id="PTHBT9e02o0WNVCgfB87-90" style="edgeStyle=orthogonalEdgeStyle;rounded=0;orthogonalLoop=1;jettySize=auto;html=1;" edge="1" parent="PTHBT9e02o0WNVCgfB87-79" source="PTHBT9e02o0WNVCgfB87-91">
          <mxGeometry relative="1" as="geometry">
            <mxPoint x="420" y="70" as="targetPoint" />
          </mxGeometry>
        </mxCell>
        <mxCell id="PTHBT9e02o0WNVCgfB87-91" value="&lt;font style=&quot;font-size: 14px;&quot;&gt;+&lt;/font&gt;" style="ellipse;whiteSpace=wrap;html=1;aspect=fixed;labelBackgroundColor=none;fillColor=none;" vertex="1" parent="PTHBT9e02o0WNVCgfB87-79">
          <mxGeometry x="210" y="60" width="20" height="20" as="geometry" />
        </mxCell>
        <mxCell id="PTHBT9e02o0WNVCgfB87-92" style="edgeStyle=orthogonalEdgeStyle;rounded=0;orthogonalLoop=1;jettySize=auto;html=1;entryX=0;entryY=0.5;entryDx=0;entryDy=0;" edge="1" parent="PTHBT9e02o0WNVCgfB87-79" source="PTHBT9e02o0WNVCgfB87-93" target="PTHBT9e02o0WNVCgfB87-91">
          <mxGeometry relative="1" as="geometry">
            <Array as="points">
              <mxPoint x="160" y="70" />
              <mxPoint x="160" y="70" />
            </Array>
          </mxGeometry>
        </mxCell>
        <mxCell id="PTHBT9e02o0WNVCgfB87-93" value="&lt;span style=&quot;color: rgb(51, 51, 51); font-family: Arial, sans-serif; font-size: 14px; text-align: start; background-color: rgb(255, 255, 255);&quot;&gt;×&lt;/span&gt;" style="ellipse;whiteSpace=wrap;html=1;aspect=fixed;labelBackgroundColor=none;fillColor=none;" vertex="1" parent="PTHBT9e02o0WNVCgfB87-79">
          <mxGeometry x="90" y="60" width="20" height="20" as="geometry" />
        </mxCell>
        <mxCell id="PTHBT9e02o0WNVCgfB87-94" style="edgeStyle=orthogonalEdgeStyle;rounded=0;orthogonalLoop=1;jettySize=auto;html=1;" edge="1" parent="PTHBT9e02o0WNVCgfB87-79" source="PTHBT9e02o0WNVCgfB87-95">
          <mxGeometry relative="1" as="geometry">
            <mxPoint x="420" y="200" as="targetPoint" />
            <Array as="points">
              <mxPoint x="340" y="200" />
              <mxPoint x="400" y="200" />
            </Array>
          </mxGeometry>
        </mxCell>
        <mxCell id="PTHBT9e02o0WNVCgfB87-95" value="&lt;span style=&quot;color: rgb(51, 51, 51); font-family: Arial, sans-serif; text-align: start; background-color: rgb(255, 255, 255);&quot;&gt;&lt;font style=&quot;font-size: 14px;&quot;&gt;×&lt;/font&gt;&lt;/span&gt;" style="ellipse;whiteSpace=wrap;html=1;aspect=fixed;labelBackgroundColor=none;fillColor=none;" vertex="1" parent="PTHBT9e02o0WNVCgfB87-79">
          <mxGeometry x="330" y="120" width="20" height="20" as="geometry" />
        </mxCell>
        <mxCell id="PTHBT9e02o0WNVCgfB87-96" value="&lt;span style=&quot;font-family: &amp;quot;Helvetica Neue&amp;quot;, Helvetica, Arial, &amp;quot;PingFang SC&amp;quot;, &amp;quot;Hiragino Sans GB&amp;quot;, &amp;quot;Microsoft YaHei&amp;quot;, &amp;quot;WenQuanYi Micro Hei&amp;quot;, sans-serif; font-size: 14px; text-align: start;&quot;&gt;tanh&lt;/span&gt;" style="rounded=0;whiteSpace=wrap;html=1;fillColor=none;strokeColor=default;fontColor=default;labelBackgroundColor=none;fontSize=14;" vertex="1" parent="PTHBT9e02o0WNVCgfB87-79">
          <mxGeometry x="320" y="90" width="40" height="20" as="geometry" />
        </mxCell>
        <mxCell id="PTHBT9e02o0WNVCgfB87-97" style="edgeStyle=orthogonalEdgeStyle;rounded=0;orthogonalLoop=1;jettySize=auto;html=1;entryX=0;entryY=0.5;entryDx=0;entryDy=0;" edge="1" parent="PTHBT9e02o0WNVCgfB87-79">
          <mxGeometry relative="1" as="geometry">
            <mxPoint y="71" as="sourcePoint" />
            <mxPoint x="90" y="71" as="targetPoint" />
          </mxGeometry>
        </mxCell>
        <mxCell id="PTHBT9e02o0WNVCgfB87-98" style="edgeStyle=orthogonalEdgeStyle;rounded=0;orthogonalLoop=1;jettySize=auto;html=1;entryX=0.5;entryY=1;entryDx=0;entryDy=0;" edge="1" parent="PTHBT9e02o0WNVCgfB87-79" target="PTHBT9e02o0WNVCgfB87-87">
          <mxGeometry relative="1" as="geometry">
            <mxPoint y="200" as="sourcePoint" />
            <mxPoint x="280" y="220" as="targetPoint" />
            <Array as="points">
              <mxPoint x="180" y="200" />
              <mxPoint x="280" y="200" />
            </Array>
          </mxGeometry>
        </mxCell>
        <mxCell id="PTHBT9e02o0WNVCgfB87-99" value="" style="endArrow=classic;html=1;rounded=0;" edge="1" parent="PTHBT9e02o0WNVCgfB87-79">
          <mxGeometry width="50" height="50" relative="1" as="geometry">
            <mxPoint x="100" y="200" as="sourcePoint" />
            <mxPoint x="99.82999999999998" y="180" as="targetPoint" />
          </mxGeometry>
        </mxCell>
        <mxCell id="PTHBT9e02o0WNVCgfB87-100" value="" style="endArrow=classic;html=1;rounded=0;" edge="1" parent="PTHBT9e02o0WNVCgfB87-79">
          <mxGeometry width="50" height="50" relative="1" as="geometry">
            <mxPoint x="160" y="200" as="sourcePoint" />
            <mxPoint x="159.82999999999998" y="180" as="targetPoint" />
          </mxGeometry>
        </mxCell>
        <mxCell id="PTHBT9e02o0WNVCgfB87-101" value="" style="endArrow=classic;html=1;rounded=0;" edge="1" parent="PTHBT9e02o0WNVCgfB87-79">
          <mxGeometry width="50" height="50" relative="1" as="geometry">
            <mxPoint x="220" y="200" as="sourcePoint" />
            <mxPoint x="219.82999999999998" y="180" as="targetPoint" />
          </mxGeometry>
        </mxCell>
        <mxCell id="PTHBT9e02o0WNVCgfB87-102" value="" style="endArrow=none;html=1;rounded=0;endFill=0;" edge="1" parent="PTHBT9e02o0WNVCgfB87-79">
          <mxGeometry width="50" height="50" relative="1" as="geometry">
            <mxPoint x="339.97" y="90" as="sourcePoint" />
            <mxPoint x="339.79999999999995" y="70" as="targetPoint" />
          </mxGeometry>
        </mxCell>
        <mxCell id="PTHBT9e02o0WNVCgfB87-103" value="" style="endArrow=none;html=1;rounded=0;endFill=0;" edge="1" parent="PTHBT9e02o0WNVCgfB87-79">
          <mxGeometry width="50" height="50" relative="1" as="geometry">
            <mxPoint x="60" y="240" as="sourcePoint" />
            <mxPoint x="60" y="200" as="targetPoint" />
            <Array as="points">
              <mxPoint x="60.170000000000016" y="210" />
            </Array>
          </mxGeometry>
        </mxCell>
        <mxCell id="PTHBT9e02o0WNVCgfB87-104" style="edgeStyle=orthogonalEdgeStyle;rounded=0;orthogonalLoop=1;jettySize=auto;html=1;endArrow=none;endFill=0;" edge="1" parent="PTHBT9e02o0WNVCgfB87-79">
          <mxGeometry relative="1" as="geometry">
            <mxPoint x="339.96000000000004" y="120" as="targetPoint" />
            <mxPoint x="339.96000000000004" y="110" as="sourcePoint" />
          </mxGeometry>
        </mxCell>
        <mxCell id="PTHBT9e02o0WNVCgfB87-105" value="" style="endArrow=none;html=1;rounded=0;endFill=0;" edge="1" parent="PTHBT9e02o0WNVCgfB87-79">
          <mxGeometry width="50" height="50" relative="1" as="geometry">
            <mxPoint x="380" y="200" as="sourcePoint" />
            <mxPoint x="380" y="80" as="targetPoint" />
            <Array as="points">
              <mxPoint x="380.1700000000001" y="150" />
            </Array>
          </mxGeometry>
        </mxCell>
        <mxCell id="PTHBT9e02o0WNVCgfB87-106" value="" style="endArrow=classic;html=1;rounded=0;endFill=1;" edge="1" parent="PTHBT9e02o0WNVCgfB87-79">
          <mxGeometry width="50" height="50" relative="1" as="geometry">
            <mxPoint x="380" y="60" as="sourcePoint" />
            <mxPoint x="380" y="20" as="targetPoint" />
            <Array as="points">
              <mxPoint x="380.1700000000001" y="50" />
            </Array>
          </mxGeometry>
        </mxCell>
        <mxCell id="PTHBT9e02o0WNVCgfB87-107" value="" style="rounded=1;whiteSpace=wrap;html=1;fillColor=#A8DADC;fillStyle=auto;opacity=80;" vertex="1" parent="PTHBT9e02o0WNVCgfB87-79">
          <mxGeometry x="20" y="40" width="380" height="180" as="geometry" />
        </mxCell>
        <mxCell id="PTHBT9e02o0WNVCgfB87-108" value="&lt;font style=&quot;font-size: 14px;&quot;&gt;x&amp;nbsp;&lt;/font&gt;" style="ellipse;whiteSpace=wrap;html=1;aspect=fixed;fillColor=#7EA6E0;" vertex="1" parent="PTHBT9e02o0WNVCgfB87-79">
          <mxGeometry x="50" y="240" width="20" height="20" as="geometry" />
        </mxCell>
        <mxCell id="PTHBT9e02o0WNVCgfB87-109" value="t-1" style="text;html=1;align=center;verticalAlign=middle;resizable=0;points=[];autosize=1;strokeColor=none;fillColor=none;fontSize=5;" vertex="1" parent="PTHBT9e02o0WNVCgfB87-79">
          <mxGeometry x="48" y="242" width="30" height="20" as="geometry" />
        </mxCell>
        <mxCell id="PTHBT9e02o0WNVCgfB87-110" value="&lt;font style=&quot;font-size: 14px;&quot;&gt;h&amp;nbsp;&lt;/font&gt;" style="ellipse;whiteSpace=wrap;html=1;aspect=fixed;fillColor=#7EA6E0;" vertex="1" parent="PTHBT9e02o0WNVCgfB87-79">
          <mxGeometry x="369" width="20" height="20" as="geometry" />
        </mxCell>
        <mxCell id="PTHBT9e02o0WNVCgfB87-111" value="&lt;font style=&quot;font-size: 5px;&quot;&gt;&lt;b style=&quot;font-size: 5px;&quot;&gt;t-1&lt;/b&gt;&lt;/font&gt;" style="text;html=1;align=center;verticalAlign=middle;resizable=0;points=[];autosize=1;strokeColor=none;fillColor=none;fontSize=5;" vertex="1" parent="PTHBT9e02o0WNVCgfB87-79">
          <mxGeometry x="368" y="2" width="30" height="20" as="geometry" />
        </mxCell>
      </root>
    </mxGraphModel>
  </diagram>
</mxfile>
